<svg width="33" height="35" viewBox="0 0 33 35" fill="none" xmlns="http://www.w3.org/2000/svg">
<path d="M30 10.9V24.8409C30 25.1678 29.8229 25.4688 29.5371 25.6277L16.9371 32.6276C16.6653 32.7786 16.3347 32.7786 16.0629 32.6276L3.46294 25.6277C3.17724 25.4688 3.00003 25.1678 3.00003 24.8409L3 10.9C3 10.5731 3.17721 10.272 3.46293 10.1133L16.0629 3.11325C16.3347 2.96225 16.6653 2.96225 16.9371 3.11325L29.5371 10.1133C29.8227 10.272 30 10.5731 30 10.9Z" stroke="white" stroke-width="4.2" stroke-linecap="round" stroke-linejoin="round"/>
<path d="M17.25 16.3706V31.3706C17.25 31.7848 16.9141 32.1206 16.5 32.1206C16.0859 32.1206 15.75 31.7848 15.75 31.3706V16.3706C15.75 15.9565 16.0859 15.6206 16.5 15.6206C16.9141 15.6206 17.25 15.9565 17.25 16.3706Z" fill="white" stroke="white" stroke-width="4.2" stroke-linecap="round" stroke-linejoin="round"/>
</svg>
