<svg width="55" height="40" viewBox="0 0 55 40" fill="none" xmlns="http://www.w3.org/2000/svg">
<path d="M2.016 32V9.312H7.744V32H2.016ZM6.56 23.52V18.688H17.792V23.52H6.56ZM6.56 14.144V9.312H18.304V14.144H6.56ZM28.3485 32.352C26.5992 32.352 25.0525 32.0107 23.7085 31.328C22.3645 30.624 21.3085 29.6533 20.5405 28.416C19.7725 27.1787 19.3885 25.76 19.3885 24.16C19.3885 22.5813 19.7618 21.184 20.5085 19.968C21.2552 18.7307 22.2685 17.76 23.5485 17.056C24.8498 16.3307 26.3112 15.968 27.9325 15.968C29.5112 15.968 30.9085 16.3093 32.1245 16.992C33.3618 17.6533 34.3218 18.5813 35.0045 19.776C35.7085 20.9493 36.0605 22.2933 36.0605 23.808C36.0605 24.128 36.0392 24.4587 35.9965 24.8C35.9752 25.12 35.9112 25.4933 35.8045 25.92L22.0125 25.984V22.4L33.5965 22.304L31.1005 23.872C31.0792 22.9973 30.9512 22.2827 30.7165 21.728C30.4818 21.152 30.1405 20.7147 29.6925 20.416C29.2445 20.1173 28.6792 19.968 27.9965 19.968C27.2925 19.968 26.6845 20.1387 26.1725 20.48C25.6605 20.8213 25.2658 21.3013 24.9885 21.92C24.7112 22.5387 24.5725 23.2853 24.5725 24.16C24.5725 25.056 24.7218 25.824 25.0205 26.464C25.3192 27.0827 25.7458 27.552 26.3005 27.872C26.8552 28.192 27.5378 28.352 28.3485 28.352C29.1165 28.352 29.7885 28.224 30.3645 27.968C30.9618 27.712 31.4952 27.3173 31.9645 26.784L34.8765 29.696C34.1085 30.5707 33.1698 31.232 32.0605 31.68C30.9725 32.128 29.7352 32.352 28.3485 32.352ZM38.1633 32V8.672H43.7313V32H38.1633ZM46.975 32V16.352H52.575V32H46.975ZM49.759 14.528C48.927 14.528 48.2337 14.2507 47.679 13.696C47.1243 13.12 46.847 12.4053 46.847 11.552C46.847 10.72 47.1243 10.016 47.679 9.44C48.2337 8.864 48.927 8.576 49.759 8.576C50.6337 8.576 51.3377 8.864 51.871 9.44C52.4257 10.016 52.703 10.72 52.703 11.552C52.703 12.4053 52.4257 13.12 51.871 13.696C51.3377 14.2507 50.6337 14.528 49.759 14.528Z" fill="white"/>
</svg>
